<?xml version="1.0" encoding="utf-8"?>
<!-- Generator: Adobe Illustrator 22.0.0, SVG Export Plug-In . SVG Version: 6.00 Build 0)  -->
<svg version="1.2" baseProfile="tiny" id="Layer_1" xmlns="http://www.w3.org/2000/svg" xmlns:xlink="http://www.w3.org/1999/xlink"
	 x="0px" y="0px" width="512px" height="512px" viewBox="0 0 512 512" xml:space="preserve">
<path fill="#7D03FE" d="M0,130.193c10.248,14.186,22.209,18.906,39.746,18.696c16.224-0.208,29.033-5.143,39.871,10.32
	c19.146,27.313-6.706,61.658-9.993,90.454c-3.811,33.337,14.004,64.42,45.647,75.899c15.191,5.506,31.277,4.686,47.173,4.111
	c11.434-0.422,36.073,0.684,34.782,18.044c-2.882,38.646-57.541,17.505-74.848,4.247c-10.065-7.716-7.294-1.422-1.873,5.758
	c4.376,5.802,9.783,12.194,15.72,16.445c12.055,8.621,28.082,18.01,43.719,15.786c37.103-5.274,56.038-37.012,37.183-70.649
	c-16.645-29.675-58.584-21.151-86.065-26.753c-56.975-11.599-4.832-89.898-14.487-123.751c-7.218-25.337-22.963-45.188-49.68-50.351
	c-11.228-2.177-22.861,0.98-33.775,3.702C26.764,123.731,1.721,125.45,0,130.193"/>
<path fill="#9F0FA1" d="M132.501,73.046c16.139,5.047,26.073,13.421,33.807,28.525c7.188,14.065,0.429,30.702-3.631,44.588
	c-8.968,30.669-9.138,66.597,15.502,90.704c24.923,24.388,57.075,23.556,85.716,40.213c28.428,16.523,39.56,43.849,41.66,75.664
	c2.264,34.336,0.652,66.198,33.176,86.404c12.924,8.038,30.552,8.289,45.107,6.165c7.728-1.134,15.17-3.04,22.509-5.697
	c13.221-4.792-3.642-4.062-9.114-4.332c-33.063-1.653-63.27-12.858-62.073-50.81c1.052-33.32,3.332-63.509-10.074-94.91
	c-11.554-27.069-39.555-45.69-66.529-54.358c-29.165-9.376-58.16-10.438-69.599-43.497c-4.258-12.319-0.135-26.124,3.203-38.097
	c4.354-15.619,7.43-29.955,4.775-46.123c-2.65-16.036-13.502-27.034-25.976-36.332C165.399,67.008,129.368,60.097,132.501,73.046"/>
<path fill="#D55800" d="M341.796,194.134c15.315-11.561,21.228-22.219,20.677-41.422c-0.435-15.306-20.086-28.461-33.758-29.415
	c-38.812-2.707-52.765,41.52-40.515,71.214c12.553,30.438,49.796,39.473,77.401,51.175c33.478,14.191,40.162,38.361,36.181,72.632
	c-3.035,26.1,0.255,72.077,36.826,72.178c39.795,0.12,49.633-32.03,72.911-57.216c3.317-3.582-11.524,3.573-14.043,5.454
	c-6.494,4.857-12.527,10.288-18.692,15.567c-10.574,9.043-27.125,17.521-40.395,9.419c-12.135-7.417-4.511-32.21-2.473-42.918
	c2.942-15.449,4.627-31.053,1.15-46.596c-10.588-47.351-53.717-59.699-93.996-74.217c-15.692-5.651-39.404-22.177-23.834-41.196
	c7.454-9.108,19.429-2.633,22.383,6.803C343.739,172.378,335.786,191.585,341.796,194.134"/>
</svg>
